<?xml version="1.0" encoding="UTF-8"?>
<svg id="Layer_2" data-name="Layer 2" xmlns="http://www.w3.org/2000/svg" viewBox="0 0 187.32 272">
  <defs>
    <style>
      .cls-1 {
        fill: #fff;
      }

      .cls-2 {
        fill: #e0c128;
      }

      .cls-3 {
        fill: #5fae2f;
      }

      .cls-4 {
        fill: #dd4846;
      }
    </style>
  </defs>
  <g id="Layer_1-2" data-name="Layer 1">
    <g>
      <path class="cls-1" d="M93.66,272c-18.82,0-35.25-4.06-49.3-12.19-14.05-8.13-24.96-19.58-32.72-34.37C3.88,210.66,0,193.43,0,173.75v-75.51c0-19.79,3.88-37.05,11.64-51.78,7.76-14.72,18.66-26.15,32.72-34.27C58.4,4.06,74.84,0,93.66,0s35.25,4.06,49.3,12.19c14.05,8.13,24.96,19.55,32.72,34.27,7.76,14.73,11.64,31.98,11.64,51.78v75.51c0,19.67-3.88,36.9-11.64,51.69-7.76,14.79-18.67,26.24-32.72,34.37-14.05,8.13-30.49,12.19-49.3,12.19ZM93.66,235.16c16.74,0,30.15-5.5,40.23-16.5,10.08-11,15.12-25.54,15.12-43.62v-78.08c0-18.21-5.04-32.78-15.12-43.71-10.08-10.93-23.49-16.4-40.23-16.4s-30,5.47-40.14,16.4c-10.14,10.94-15.21,25.51-15.21,43.71v78.08c0,18.08,5.07,32.62,15.21,43.62,10.14,11,23.52,16.5,40.14,16.5Z"/>
      <path class="cls-2" d="M125.36,138c0,5.35-1.75,9.64-5.24,12.86s-8.16,4.83-13.98,4.83h-24.96c-5.78,0-10.43-1.61-13.95-4.83-3.52-3.22-5.27-7.51-5.27-12.86s1.76-9.59,5.27-12.83c3.52-3.24,8.17-4.86,13.95-4.86h24.96c5.82,0,10.48,1.62,13.98,4.86,3.5,3.24,5.24,7.52,5.24,12.83Z"/>
      <path class="cls-4" d="M133.78,85.25c0,5.35-1.75,9.64-5.24,12.86-3.5,3.22-8.16,4.83-13.98,4.83h-41.8c-5.78,0-10.43-1.61-13.95-4.83-3.52-3.22-5.27-7.51-5.27-12.86s1.76-9.59,5.27-12.83c3.52-3.24,8.17-4.86,13.95-4.86h41.8c5.82,0,10.48,1.62,13.98,4.86,3.5,3.24,5.24,7.52,5.24,12.83Z"/>
      <path class="cls-3" d="M113.4,190.75c0,5.35-1.75,9.64-5.24,12.86s-8.16,4.83-13.98,4.83h-1.05c-5.78,0-10.43-1.61-13.95-4.83-3.52-3.22-5.27-7.51-5.27-12.86s1.76-9.59,5.27-12.83c3.52-3.24,8.17-4.86,13.95-4.86h1.05c5.82,0,10.48,1.62,13.98,4.86,3.5,3.24,5.24,7.52,5.24,12.83Z"/>
    </g>
  </g>
</svg>